<svg xmlns="http://www.w3.org/2000/svg" xmlns:xlink="http://www.w3.org/1999/xlink" version="1.1" id="Layer_1" x="0px" y="0px" style="enable-background:new 0 0 512 512;" xml:space="preserve" viewBox="0 120.16 512 271.67">
<rect x="10.449" y="271.673" style="fill:#DF5F4E;" width="164.049" height="41.796"/>
<rect x="10.449" y="313.469" style="fill:#ECF0F1;" width="164.049" height="67.918"/>
<rect x="174.498" y="130.612" style="fill:#3EBD91;" width="163.004" height="41.796"/>
<rect x="174.498" y="172.408" style="fill:#ECF0F1;" width="163.004" height="208.98"/>
<rect x="337.502" y="198.531" style="fill:#F8C660;" width="164.049" height="41.796"/>
<rect x="337.502" y="240.327" style="fill:#ECF0F1;" width="164.049" height="141.061"/>
<path style="fill:#231F20;" d="M501.551,188.082h-153.6v-57.469c0-5.77-4.679-10.449-10.449-10.449H174.498  c-5.771,0-10.449,4.679-10.449,10.449v130.612h-153.6C4.678,261.224,0,265.904,0,271.673v109.714c0,5.77,4.678,10.449,10.449,10.449  h491.102c5.77,0,10.449-4.679,10.449-10.449V198.531C512,192.761,507.321,188.082,501.551,188.082z M491.102,208.98v20.898H347.951  V208.98H491.102z M184.947,141.061h142.106v20.898H184.947V141.061z M20.898,282.122h143.151v20.898H20.898V282.122z   M20.898,323.918h143.151v47.02H20.898V323.918z M184.947,182.857h142.106v188.082H184.947V182.857z M491.102,370.939H347.951  V250.775h143.151V370.939z"/>
<g>
</g>
<g>
</g>
<g>
</g>
<g>
</g>
<g>
</g>
<g>
</g>
<g>
</g>
<g>
</g>
<g>
</g>
<g>
</g>
<g>
</g>
<g>
</g>
<g>
</g>
<g>
</g>
<g>
</g>
</svg>