<?xml version="1.0" encoding="utf-8"?>
<!-- Generator: Adobe Illustrator 25.2.1, SVG Export Plug-In . SVG Version: 6.00 Build 0)  -->
<svg version="1.1" id="Layer_1" xmlns="http://www.w3.org/2000/svg" xmlns:xlink="http://www.w3.org/1999/xlink" x="0px" y="0px"
	 viewBox="0 0 512 271.7" style="enable-background:new 0 0 512 271.7;" xml:space="preserve">
<style type="text/css">
	.st0{fill:#DF5F4E;}
	.st1{fill:#ECF0F1;}
	.st2{fill:#3EBD91;}
	.st3{fill:#F8C660;}
	.st4{fill:#231F20;}
</style>
<rect x="10.4" y="151.5" class="st0" width="164" height="41.8"/>
<rect x="10.4" y="193.3" class="st1" width="164" height="67.9"/>
<rect x="174.5" y="10.5" class="st2" width="163" height="41.8"/>
<rect x="174.5" y="52.2" class="st1" width="163" height="209"/>
<rect x="337.5" y="78.4" class="st3" width="164" height="41.8"/>
<rect x="337.5" y="120.2" class="st1" width="164" height="141.1"/>
<path class="st4" d="M501.6,67.9H348V10.5C348,4.7,343.3,0,337.5,0h-163C168.7,0,164,4.7,164,10.5v130.6H10.4
	c-5.8,0-10.4,4.7-10.4,10.4v109.7c0,5.8,4.7,10.4,10.4,10.4h491.1c5.8,0,10.4-4.7,10.4-10.4V78.4C512,72.6,507.3,67.9,501.6,67.9z
	 M491.1,88.8v20.9H348V88.8H491.1z M184.9,20.9h142.1v20.9H184.9V20.9z M20.9,162H164v20.9H20.9V162z M20.9,203.8H164v47H20.9V203.8
	z M184.9,62.7h142.1v188.1H184.9V62.7z M491.1,250.8H348V130.6h143.2V250.8z"/>
<path d="M265.7,85.6v104.2h8v38h-35.4v-38h7.5v-61.2h-7.5V96.5c8.7,0,14.5-3.6,17.3-10.9H265.7z"/>
<path d="M433.8,200.6v29.3h-29.1v-8.2c0-13.7,3.6-23.9,10.9-30.7c5.1-4.8,7.6-8.9,7.6-12.3c0-3.9-1.1-5.9-3.4-5.9
	c-2.5,0-3.7,2.1-3.7,6.3c0,1.3,0.2,2.9,0.5,5h-9.6c-0.4-4.9-0.6-9-0.6-12.2c0-13.5,4.7-20.3,14-20.3s14,7.2,14,21.7
	c0,10.3-3.2,17.8-9.6,22.4c-5.8,4.2-9,9-9.5,14.4h8.8v-9.4H433.8z"/>
<g>
	<path d="M98.6,210.3v8.5l-4.7,6.3h0.3c3.1,0,4.6,2.7,4.6,8.2c0,4.1-0.5,7-1.4,8.6c-0.9,1.6-2.6,2.4-5,2.4c-4.3,0-6.5-3.1-6.5-9.2
		c0-1.6,0.1-3.2,0.3-4.8h4.2v0.5c0,2.7,0.6,4.1,1.7,4.1c1.1,0,1.6-1.2,1.6-3.5c0-2.5-0.5-3.7-1.6-3.6c-0.4,0-0.8,0.3-1.1,0.9
		l-2.2-1.7l6.1-8h-4.6v3.2h-3.8v-11.7H98.6z"/>
</g>
</svg>
